<svg x="0" y="0" width="48" height="48" version="1.1" xmlns="http://www.w3.org/2000/svg" xmlns:xlink="http://www.w3.org/1999/xlink"><defs><linearGradient x1="9.17215" y1="9.17215" x2="67.36023" y2="67.36023" gradientUnits="userSpaceOnUse" id="color-1"><stop offset="0" stop-color="#000000" stop-opacity="0.46"></stop><stop offset="1" stop-color="#000000" stop-opacity="0"></stop></linearGradient><filter id="dropshadow"><feColorMatrix type="matrix" values="0 0 0 0 .05  0 0 0 0 .15  0 0 0 0 .1  0 0 0 .8 0"></feColorMatrix> <feOffset dx="0" dy="1"></feOffset> <feGaussianBlur stdDeviation="1"></feGaussianBlur> <feComposite in="SourceGraphic"></feComposite></filter></defs><g fill="none" stroke="none" stroke-width="none" stroke-linecap="butt" stroke-linejoin="miter" stroke-miterlimit="none" stroke-dasharray="" stroke-dashoffset="0" font-family="none" font-weight="none" font-size="none" text-anchor="start" mix-blend-mode="normal"><g fill="#000000" stroke="none" stroke-width="1" stroke-miterlimit="4" font-family="&quot;Open Sans&quot;, sans-serif" font-weight="400" font-size="14"></g><path d="M5,45c-1.10457,0 -2,-0.89543 -2,-2l0,-38c0,-1.10457 0.89543,-2 2,-2l38,0c1.10457,0 2,0.89543 2,2l0,38c0,1.10457 -0.89543,2 -2,2z" fill="#2d8aa8" stroke-width="1" stroke-miterlimit="10" font-family="sans-serif" font-weight="normal" font-size="12" filter="url(#dropshadow)"></path><path d="M35.11477,45c0,0 -25.94262,-25.94262 -25.94262,-25.94262l0,-6.59015c0,-1.82054 1.47454,-3.29508 3.29508,-3.29508l6.59015,0l25.94262,25.94262l0,7.88523c0,1.10457 -0.89543,2 -2,2z M45,28.52461l-16.05738,-16.05738l0,-3.29508l6.59015,0c0.91026,0 1.73403,0.36864 2.33023,0.96484l7.13699,7.13699z M9.17215,35.53277l0,-6.59015l3.29508,0l16.05738,16.05738l-11.25062,0l-7.13699,-7.13699c-0.59621,-0.59619 -0.96484,-1.41997 -0.96484,-2.33023z" fill="url(#color-1)" stroke-width="1" stroke-miterlimit="10" font-family="sans-serif" font-weight="normal" font-size="12"></path><path d="M30.59015,24c0,3.64106 -2.94909,6.59015 -6.59015,6.59015c-3.64106,0 -6.59015,-2.94909 -6.59015,-6.59015c0,-3.64106 2.94909,-6.59015 6.59015,-6.59015c3.64106,0 6.59015,2.94909 6.59015,6.59015z M35.53277,28.94262l3.29508,0l0,6.59015c0,1.82053 -1.47455,3.29508 -3.29508,3.29508l-6.59015,0l0,-3.29508l6.59015,0z M12.46723,35.53277l6.59015,0l0,3.29508l-6.59015,0c-1.82053,0 -3.29508,-1.47455 -3.29508,-3.29508l0,-6.59015l3.29508,0z M38.82785,12.46723l0,6.59015l-3.29508,0l0,-6.59015l-6.59015,0l0,-3.29508l6.59015,0c1.82053,0 3.29508,1.47455 3.29508,3.29508z M12.46723,19.05738l-3.29508,0l0,-6.59015c0,-1.82053 1.47455,-3.29508 3.29508,-3.29508l6.59015,0l0,3.29508l-6.59015,0z" fill="#ffc700" stroke="none" stroke-width="0" stroke-miterlimit="4" font-family="&quot;Open Sans&quot;, sans-serif" font-weight="400" font-size="14"></path></g></svg>